<?xml version="1.0" standalone="no"?>
<!DOCTYPE svg PUBLIC "-//W3C//DTD SVG 20010904//EN"
 "http://www.w3.org/TR/2001/REC-SVG-20010904/DTD/svg10.dtd">
<svg version="1.0" xmlns="http://www.w3.org/2000/svg"
 width="338.000000pt" height="338.000000pt" viewBox="0 0 338.000000 338.000000"
 preserveAspectRatio="xMidYMid meet">
<metadata>
Created by potrace 1.11, written by Peter Selinger 2001-2013
</metadata>
<g transform="translate(0.000000,338.000000) scale(0.100000,-0.100000)"
fill="#000000" stroke="none">
<path d="M1485 3009 c-323 -56 -598 -206 -797 -436 l-58 -67 -1 -280 0 -281
-57 182 c-31 101 -60 183 -63 183 -12 0 -79 -159 -104 -247 -112 -383 -48
-795 175 -1129 66 -99 261 -293 359 -358 212 -141 445 -217 711 -233 171 -10
428 44 615 131 361 167 645 519 733 911 39 170 47 294 28 435 -39 303 -140
534 -327 749 -210 241 -499 396 -832 445 -138 21 -245 19 -382 -5z m-144 -673
c123 -26 192 -77 238 -176 23 -50 26 -67 26 -175 0 -116 -1 -123 -33 -188 -18
-37 -43 -75 -55 -84 l-23 -16 47 -47 c71 -71 93 -137 93 -280 0 -133 -19 -198
-80 -268 -128 -150 -510 -161 -656 -19 -55 54 -85 118 -99 212 -22 144 16 281
98 361 l42 41 -30 29 c-64 60 -96 172 -86 297 10 134 68 233 166 282 83 42
236 55 352 31z m964 4 c189 -31 285 -150 285 -355 0 -103 -22 -180 -71 -244
l-39 -52 30 -26 c147 -123 146 -463 -2 -589 -139 -117 -457 -122 -610 -10
-155 115 -167 451 -20 593 l40 38 -39 43 c-54 62 -74 126 -74 247 0 157 45
249 150 311 80 47 223 65 350 44z"/>
<path d="M1095 2198 c-91 -33 -135 -102 -135 -213 0 -156 79 -225 254 -225
104 0 148 13 197 57 49 44 62 88 58 191 -4 72 -7 84 -35 119 -48 61 -93 78
-209 80 -55 1 -113 -3 -130 -9z"/>
<path d="M1080 1600 c-100 -34 -150 -111 -150 -230 0 -108 39 -178 124 -223
36 -19 57 -22 161 -22 116 0 122 1 175 31 78 44 110 107 110 213 0 91 -20 142
-73 188 -71 62 -233 83 -347 43z"/>
<path d="M2076 2195 c-95 -34 -136 -98 -136 -210 1 -113 45 -182 139 -214 43
-14 184 -14 234 0 49 13 113 71 126 112 46 145 -2 272 -116 311 -58 20 -193
20 -247 1z"/>
<path d="M2078 1607 c-110 -31 -168 -113 -168 -238 0 -163 100 -249 290 -249
102 0 172 22 218 68 45 45 62 96 62 190 0 57 -5 79 -28 123 -23 45 -37 59 -86
84 -50 25 -71 30 -149 32 -54 2 -111 -3 -139 -10z"/>
</g>
</svg>
