<?xml version="1.0" encoding="UTF-8"?>
<svg width="921px" height="921px" viewBox="0 0 921 921" version="1.1" xmlns="http://www.w3.org/2000/svg" xmlns:xlink="http://www.w3.org/1999/xlink">
    <!-- Generator: Sketch 57 (83077) - https://sketch.com -->
    <title>div 88 logo original copy</title>
    <desc>Created with Sketch.</desc>
    <defs>
        <path d="M452.5,0 C702.408849,0 905,202.591151 905,452.5 C905,702.408849 702.408849,905 452.5,905 C202.591151,905 0,702.408849 0,452.5 C0,375.080674 19.4426731,302.202427 53.711651,238.481629 L95.046666,370.439295 L95.0406057,175.014819 C177.82996,68.5184866 307.163305,0 452.5,0 Z M291.370505,228.511914 C198.984794,228.511914 158.632649,274.882569 158.632649,349.889156 C158.632649,394.300227 169.300005,428.965704 199.23794,449.851548 C164.688198,471.662537 148.804421,508.816664 148.804421,557.13164 C148.804421,636.982245 186.132142,690 291.521133,690 C396.910125,690 435.788696,638.302868 435.788696,557.13164 C435.788696,508.206209 419.463257,471.315635 384.741278,449.73127 C414.553538,429.018803 425.550774,394.67816 425.550774,349.889156 C425.550774,273.64206 383.756217,228.511914 291.370505,228.511914 Z M622.581809,228.511914 C530.196098,228.511914 489.843953,274.882569 489.843953,349.889156 C489.843953,394.300227 500.511309,428.965704 530.449244,449.851548 C495.899502,471.662537 480.015725,508.816664 480.015725,557.13164 C480.015725,636.982245 517.343446,690 622.732438,690 C728.121429,690 767,638.302868 767,557.13164 C767,508.206209 750.674561,471.315635 715.952582,449.73127 C745.764842,429.018803 756.762078,394.67816 756.762078,349.889156 C756.762078,273.64206 714.967521,228.511914 622.581809,228.511914 Z M296.685577,475.065372 C369.279731,475.065372 388.093627,519.893132 387.62178,551.890323 L387.62178,551.890323 L387.62178,565.813573 L387.612158,567.27372 C386.977114,615.264557 354.908531,644.01834 291.632477,644.01834 C227.669201,644.01834 198.689234,613.558389 195.979918,565.813573 L195.979918,565.813573 L195.979918,551.890323 L195.980595,551.752709 C196.025722,546.952241 198.371238,516.621797 216.200623,500.048169 C234.210103,483.307131 255.466068,475.065372 285.320881,475.065372 L285.320881,475.065372 Z M627.896881,475.065372 C700.491035,475.065372 719.304931,519.893132 718.833084,551.890323 L718.833084,551.890323 L718.833084,565.813573 L718.823462,567.27372 C718.188418,615.264557 686.119835,644.01834 622.843781,644.01834 C558.880505,644.01834 529.900538,613.558389 527.191222,565.813573 L527.191222,565.813573 L527.191899,551.752709 C527.237026,546.952241 529.582542,516.621797 547.411927,500.048169 C565.421407,483.307131 586.677372,475.065372 616.532185,475.065372 L616.532185,475.065372 Z M296.205294,274.901096 C362.076981,274.901096 379.148646,315.625639 378.720494,344.694034 L378.720494,344.694034 L378.720494,357.342848 L378.711763,358.669343 C378.170739,399.603219 352.486483,425.1315 301.832384,428.094479 C298.462737,427.975516 295.025792,427.915707 291.521133,427.915707 C288.114458,427.915707 284.773587,427.973772 281.501971,428.092303 C230.50664,425.007906 207.13606,398.111749 204.825324,357.342848 L204.825324,357.342848 L204.825938,344.569016 C204.866886,340.207949 206.995199,312.653739 223.173523,297.597144 C239.515263,282.388462 258.802853,274.901096 285.893008,274.901096 L285.893008,274.901096 Z M627.416598,274.901096 C693.288285,274.901096 710.35995,315.625639 709.931798,344.694034 L709.931798,344.694034 L709.931798,357.342848 L709.923067,358.669343 C709.382043,399.603219 683.697787,425.1315 633.043688,428.094479 C629.674041,427.975516 626.237096,427.915707 622.732438,427.915707 C619.325762,427.915707 615.984891,427.973772 612.713275,428.092303 C561.717944,425.007906 538.347364,398.111749 536.036628,357.342848 L536.036628,357.342848 L536.037242,344.569016 C536.07819,340.207949 538.206504,312.653739 554.384827,297.597144 C570.726567,282.388462 590.014157,274.901096 617.104312,274.901096 L617.104312,274.901096 Z" id="path-1"></path>
        <filter x="-0.5%" y="-0.5%" width="101.9%" height="102.0%" filterUnits="objectBoundingBox" id="filter-2">
            <feOffset dx="4" dy="5" in="SourceAlpha" result="shadowOffsetOuter1"></feOffset>
            <feGaussianBlur stdDeviation="2" in="shadowOffsetOuter1" result="shadowBlurOuter1"></feGaussianBlur>
            <feColorMatrix values="0 0 0 0 0   0 0 0 0 0   0 0 0 0 0  0 0 0 0.202278191 0" type="matrix" in="shadowBlurOuter1"></feColorMatrix>
        </filter>
    </defs>
    <g id="div-88-logo-original-copy" stroke="none" stroke-width="1" fill="none" fill-rule="evenodd">
        <g id="Combined-Shape">
            <use fill="black" fill-opacity="1" filter="url(#filter-2)" xlink:href="#path-1"></use>
            <use fill="#FFFFFF" fill-rule="evenodd" xlink:href="#path-1"></use>
        </g>
    </g>
</svg>